<?xml version="1.0" encoding="UTF-8" standalone="no"?>
<svg
   xmlns:dc="http://purl.org/dc/elements/1.1/"
   xmlns:cc="http://creativecommons.org/ns#"
   xmlns:rdf="http://www.w3.org/1999/02/22-rdf-syntax-ns#"
   xmlns:svg="http://www.w3.org/2000/svg"
   xmlns="http://www.w3.org/2000/svg"
   xmlns:sodipodi="http://sodipodi.sourceforge.net/DTD/sodipodi-0.dtd"
   xmlns:inkscape="http://www.inkscape.org/namespaces/inkscape"
   width="636"
   height="636"
   viewBox="0 0 636 636"
   version="1.1"
   id="svg6"
   sodipodi:docname="knot.svg"
   inkscape:export-filename="/home/jessicaflemingd/entan.gl/app/hugo/static/icons/32.png"
   inkscape:export-xdpi="4.8299999"
   inkscape:export-ydpi="4.8299999"
   inkscape:version="0.92.4 (5da689c313, 2019-01-14)">
  <metadata
     id="metadata12">
    <rdf:RDF>
      <cc:Work
         rdf:about="">
        <dc:format>image/svg+xml</dc:format>
        <dc:type
           rdf:resource="http://purl.org/dc/dcmitype/StillImage" />
        <dc:title>Floral Pentagram</dc:title>
      </cc:Work>
    </rdf:RDF>
  </metadata>
  <defs
     id="defs10" />
  <sodipodi:namedview
     pagecolor="#ffffff"
     bordercolor="#666666"
     borderopacity="1"
     objecttolerance="10"
     gridtolerance="10"
     guidetolerance="10"
     inkscape:pageopacity="0"
     inkscape:pageshadow="2"
     inkscape:window-width="2256"
     inkscape:window-height="1452"
     id="namedview8"
     showgrid="false"
     inkscape:zoom="0.78666667"
     inkscape:cx="-14.614792"
     inkscape:cy="248.32497"
     inkscape:window-x="0"
     inkscape:window-y="26"
     inkscape:window-maximized="1"
     inkscape:current-layer="svg6" />
  <title
     id="title2">Floral Pentagram</title>
  <ellipse
     style="fill:#000000;fill-opacity:1;stroke:#000000;stroke-width:9.39639854;stroke-linejoin:miter;stroke-miterlimit:4;stroke-dasharray:none;stroke-opacity:1"
     id="path832"
     cx="319.7034"
     cy="307.39832"
     rx="114.34418"
     ry="213.49672" />
  <ellipse
     style="fill:#000000;fill-opacity:1;stroke:#000000;stroke-width:8;stroke-linejoin:miter;stroke-miterlimit:4;stroke-dasharray:none;stroke-opacity:1"
     id="path834"
     cx="309.53391"
     cy="309.94067"
     rx="229.44916"
     ry="111.22881" />
  <ellipse
     style="fill:#000000;fill-opacity:1;stroke:#000000;stroke-width:15.83444309;stroke-linejoin:miter;stroke-miterlimit:4;stroke-dasharray:none;stroke-opacity:1"
     id="path836"
     cx="320.33896"
     cy="461.84747"
     rx="181.67599"
     ry="67.269218" />
  <path
     style="fill:#f8ae02;fill-opacity:1;stroke:#000000;stroke-width:8;stroke-linejoin:miter;stroke-miterlimit:4;stroke-dasharray:none"
     d="m 316.24805,13.552734 c -13.60267,30.92708 -36.99446,56.685609 -64.40235,76.070313 -21.1323,18.192763 -30.4235,45.789143 -36.21469,72.216343 -2.93507,12.09301 -5.1674,24.34215 -7.19546,36.61569 -28.17512,-4.31925 -57.03021,-7.86503 -85.46289,-4.10352 -20.12407,3.49441 -37.426482,14.99353 -53.841801,26.44141 C 46.684552,234.07181 21.06258,241.69773 -4.9726562,244.20312 22.342054,267.17945 40.684577,299.15357 51.25,332.92188 c 11.024267,25.21812 34.064425,42.23025 57.14258,55.7246 10.54961,6.49289 21.40414,12.48655 32.49219,18.00782 -12.96868,25.52178 -24.89165,52.1033 -30.3693,80.33903 -3.02473,20.79765 3.36125,41.2264 8.93907,60.97772 5.30142,25.0089 4.47945,51.12715 -1.01704,75.88247 30.03955,-18.61683 65.67393,-26.46915 100.57812,-25.94922 28.11644,-2.34735 52.04987,-19.53673 72.44532,-37.76563 9.21096,-7.87095 18.06072,-16.16321 26.54687,-24.81055 20.53563,20.43414 42.33992,40.34569 67.98352,54.16452 18.77642,8.98046 39.97049,9.04904 60.28761,9.939 25.21183,2.75855 49.56504,11.5183 71.36364,24.37305 -8.57749,-34.8431 -4.71071,-70.90628 6.61429,-104.64635 5.98995,-26.93525 -2.68226,-54.3119 -13.43656,-78.8517 -4.71936,-11.45421 -9.97312,-22.68612 -15.70508,-33.66797 25.74818,-13.19582 51.38674,-27.76202 72.43728,-47.84127 14.27588,-14.9349 20.93004,-34.87732 27.93164,-53.81499 10.43326,-23.3944 26.37033,-43.95742 45.46312,-60.87694 -35.24977,-2.44369 -68.94462,-17.42328 -97.22657,-38.43945 -21.87232,-13.0292 -48.2237,-14.4977 -72.98084,-12.19957 -14.504,0.8701 -28.95677,2.55433 -43.28478,4.96324 -4.60263,-28.6027 -10.53372,-57.53256 -23.16914,-83.78133 C 394.37424,96.313785 377.22424,83.813363 361.30652,71.118603 342.62339,54.14147 328.14178,32.882464 318.10938,9.8476562 c -0.62045,1.2350258 -1.24089,2.4700518 -1.86133,3.7050778 z m 0.39843,130.638676 c 24.46522,-0.15375 51.6688,6.76353 66.65821,27.60937 6.69273,10.08278 8.56184,22.10751 11.6875,33.56836 -26.52017,6.86886 -52.35038,16.42362 -76.91407,28.55664 -24.6717,-12.08635 -50.56016,-21.71073 -77.17382,-28.54492 4.05631,-17.1347 8.76405,-37.02773 25.09961,-46.67578 14.80969,-10.17905 32.8336,-14.37951 50.64257,-14.51367 z m -128.24609,86.35156 c 5.56876,0.2061 11.14235,0.37711 16.69727,0.83984 -1.65882,27.35705 -0.56921,54.88959 3.38672,82.01172 -19.01659,19.83264 -36.27486,41.39502 -51.00782,64.60156 -15.47574,-9.34357 -33.32583,-20.38283 -36.92773,-39.60351 -8.22837,-32.30477 3.07252,-67.39398 25.39844,-91.57422 11.01538,-11.13513 26.54962,-18.32122 42.45312,-16.27539 z m 264.59375,-0.19141 c 18.29451,-0.44352 34.21855,11.15662 44.58984,25.37696 15.9894,21.48868 23.32086,49.67721 19.54493,76.19531 -2.50733,15.66166 -11.87593,30.26916 -25.93681,37.81834 -4.15378,2.8472 -8.37806,5.59248 -12.67257,8.22267 -14.71346,-23.13485 -31.82349,-44.74229 -50.95898,-64.375 3.82658,-27.19773 5.0042,-54.78193 3.3164,-82.20117 7.38217,-0.51848 14.69369,-0.99196 22.11719,-1.03711 z m -51.87109,7.89063 c 2.21974,17.33433 2.97356,34.93071 2.21484,52.45898 -17.48116,-15.20009 -36.28381,-28.8819 -56.13867,-40.8164 17.39131,-6.51981 35.24089,-11.41803 53.51758,-14.66602 0.13541,1.00781 0.27083,2.01563 0.40625,3.02344 z m -163.66993,-2.60352 c 17.54243,3.27571 34.61803,8.00122 51.38086,14.25195 -19.85968,11.93125 -38.68455,25.58644 -56.16992,40.78711 -0.825,-18.54285 0.0278,-37.03117 2.5918,-55.43554 0.73242,0.13216 1.46484,0.26432 2.19726,0.39648 z m 82.40235,27.80469 c 29.86082,15.11968 57.12845,35.16768 80.52734,59.03711 -5.20106,33.69226 -15.74553,66.52165 -31.58789,96.70508 -33.71544,5.62125 -68.1864,5.5446 -101.75781,-0.12696 -15.68295,-30.19609 -26.36032,-63.12611 -31.32227,-96.81054 23.91747,-24.29193 51.83393,-44.5254 82.38868,-59.70117 l 0.89022,0.45553 z M 215.10742,348.2168 c 5.17478,21.86296 12.17677,43.29572 20.95313,63.97851 -17.85147,-4.92872 -35.25578,-11.48491 -51.91016,-19.58593 8.76821,-16.4131 18.8955,-31.81835 30.48828,-46.42969 0.15625,0.67903 0.3125,1.35807 0.46875,2.03711 z m 207.11524,-0.95118 c 11.17224,14.14921 21.13206,29.33733 29.64062,45.30665 -16.77485,8.14378 -34.01598,14.64491 -51.95508,19.64257 9.05469,-21.32268 16.25936,-43.43307 21.46875,-66.00586 l 0.62487,0.78073 z m 44.91015,78.40821 c 6.57438,15.33956 11.76673,33.30299 3.95703,49.15234 -12.01678,29.31298 -40.22459,50.13614 -70.50262,57.53303 -16.70651,3.80478 -35.58463,0.29107 -48.12238,-11.79475 -4.20788,-3.18303 -8.33051,-6.49721 -12.32226,-9.8789 17.45975,-21.13912 32.72514,-44.09182 45.48242,-68.35938 27.05277,-4.76929 53.65461,-12.17334 79.21289,-22.25586 0.76497,1.86784 1.52995,3.73568 2.29492,5.60352 z m -294.15234,-4.875 c 24.93948,9.72128 50.87003,16.89053 77.24805,21.42578 12.90505,24.25755 28.16763,47.2737 45.6582,68.4707 -13.5201,11.67896 -29.37607,25.17989 -48.57031,22.92578 -32.69548,-1.81392 -62.76342,-23.15232 -79.09571,-51.14648 -8.30378,-14.94176 -9.83669,-33.67288 -2.2207,-48.98438 1.61605,-4.50868 3.34133,-8.97797 5.16602,-13.40625 l 0.93039,0.36656 z m 111.57422,25.83008 c 22.64364,1.93324 45.44768,1.78062 68.09375,-0.0391 -10.20318,15.4303 -21.79965,29.94279 -34.63867,43.26172 -12.8451,-13.35994 -24.45159,-27.90333 -34.71094,-43.33594 l 0.99595,0.0898 z"
     id="path4"
     inkscape:connector-curvature="0" />
</svg>
